<?xml version="1.0" encoding="UTF-8" standalone="no"?>
<!-- Generator: Adobe Illustrator 16.0.0, SVG Export Plug-In . SVG Version: 6.00 Build 0)  -->

<svg
   xmlns:dc="http://purl.org/dc/elements/1.1/"
   xmlns:cc="http://creativecommons.org/ns#"
   xmlns:rdf="http://www.w3.org/1999/02/22-rdf-syntax-ns#"
   xmlns:svg="http://www.w3.org/2000/svg"
   xmlns="http://www.w3.org/2000/svg"
   xmlns:sodipodi="http://sodipodi.sourceforge.net/DTD/sodipodi-0.dtd"
   xmlns:inkscape="http://www.inkscape.org/namespaces/inkscape"
   version="1.1"
   id="Layer_1"
   x="0px"
   y="0px"
   width="51.005001"
   height="61"
   viewBox="0 0 51.005001 61"
   enable-background="new 0 0 172 65"
   xml:space="preserve"
   sodipodi:docname="logo.svg"
   inkscape:version="0.92.4 (5da689c313, 2019-01-14)"><metadata
   id="metadata43"><rdf:RDF><cc:Work
       rdf:about=""><dc:format>image/svg+xml</dc:format><dc:type
         rdf:resource="http://purl.org/dc/dcmitype/StillImage" /><dc:title></dc:title></cc:Work></rdf:RDF></metadata><defs
   id="defs41" /><sodipodi:namedview
   pagecolor="#ffffff"
   bordercolor="#666666"
   borderopacity="1"
   objecttolerance="10"
   gridtolerance="10"
   guidetolerance="10"
   inkscape:pageopacity="0"
   inkscape:pageshadow="2"
   inkscape:window-width="1920"
   inkscape:window-height="991"
   id="namedview39"
   showgrid="false"
   inkscape:pagecheckerboard="true"
   inkscape:zoom="8.0697674"
   inkscape:cx="27.541478"
   inkscape:cy="26.356626"
   inkscape:window-x="0"
   inkscape:window-y="0"
   inkscape:window-maximized="1"
   inkscape:current-layer="Layer_1"
   fit-margin-top="0.5"
   fit-margin-left="0.5"
   fit-margin-right="0.5"
   fit-margin-bottom="0.5" />
<path
   d="m 25.998,9.327 c 0,0.979 0.006,3.487 0,4.394 0,0.407 0.152,0.698 0.344,0.908 0.115,0.116 0.215,0.193 0.311,0.25 0.035,0.032 0.191,0.089 0.246,0.089 0.08,0.014 0.184,0.023 0.311,0.019 0.314,-0.022 0.621,-0.13 0.9,-0.433 0.595,-0.649 1.854,-1.994 2.39,-2.571 0.158,-0.17 -0.009,-0.197 -0.144,-0.192 -1.102,0.031 -2.283,1.083 -3.084,1.803 C 27.17,12.511 27.006,10.096 26.206,9.18 26.111,9.075 25.998,9.081 25.998,9.327 M 24.984,9.178 c -0.805,0.917 -0.947,3.331 -1.04,4.414 -0.805,-0.72 -1.985,-1.771 -3.086,-1.803 -0.133,-0.004 -0.306,0.022 -0.148,0.192 0.536,0.578 1.795,1.922 2.392,2.571 0.278,0.303 0.587,0.411 0.872,0.429 0.158,0.009 0.257,0 0.339,-0.014 0.055,0 0.209,-0.058 0.246,-0.089 0.101,-0.057 0.195,-0.134 0.291,-0.228 0.213,-0.232 0.365,-0.523 0.361,-0.93 0,-0.907 0.004,-3.416 0.004,-4.394 C 25.216,9.081 25.074,9.075 24.984,9.178 M 15.636,31.676 C 15.709,30.849 15.151,30.137 14.364,29.987 14.257,29.978 14.15,29.968 14.048,29.956 10.642,29.629 7.275,28.654 4.15,27.01 4.079,26.968 4.013,27.046 4.048,27.116 c 0.194,0.371 0.752,0.801 1.603,1.404 0.972,0.692 4.142,2.227 6.839,2.757 1.036,0.207 2.089,0.34 3.146,0.399 m 2.565,3.935 c 0.042,-0.305 -0.016,-0.707 -0.166,-1.068 -0.058,-0.27 -0.249,-0.514 -0.493,-0.707 -0.396,-0.312 -0.901,-0.5 -1.286,-0.514 -3.51,-0.197 -6.928,-1.426 -9.966,-3.56 -0.152,-0.106 -0.209,-0.035 -0.09,0.113 0.53,0.647 1.053,1.332 1.73,1.859 2.055,1.605 4.445,2.562 6.878,2.992 0.521,0.092 1.052,0.16 1.58,0.205 0.117,0.004 0.195,0 0.215,0.035 0.022,0.031 0.024,0.119 -0.007,0.232 -0.045,0.514 -0.071,1.037 -0.071,1.561 0,2.418 0.544,4.887 1.788,7.154 0.411,0.746 1.009,1.371 1.568,1.994 0.126,0.143 0.2,0.098 0.121,-0.064 -1.604,-3.306 -2.231,-6.814 -1.801,-10.232 m 2.989,2.727 c 0.008,-0.102 0.015,-0.209 0.021,-0.309 -0.012,-0.787 -0.622,-1.453 -1.439,-1.529 h -0.031 c -0.124,1.029 -0.18,2.066 -0.154,3.107 0.051,2.688 1.084,6.014 1.606,7.074 0.457,0.926 0.788,1.541 1.127,1.787 0.069,0.051 0.149,0 0.126,-0.076 -1.101,-3.304 -1.533,-6.714 -1.256,-10.054 m 3.345,0.808 c 0,-0.004 0.045,-0.393 0.047,-0.396 0.195,-1.248 -0.238,-2.504 -1.017,-3.389 -1.288,-1.469 -3.434,-1.588 -4.286,-2.518 -0.845,-0.934 -0.514,-3.291 -1.814,-4.646 -0.817,-0.854 -1.971,-1.395 -3.259,-1.426 L 13.849,26.757 C 10.15,26.712 6.755,26.024 3.238,24.607 c -0.121,-0.05 -0.268,0.062 -0.169,0.2 0.321,0.43 1.004,1.048 2.202,1.552 3.748,1.588 8.844,1.963 8.858,1.963 2.168,0.107 3.117,2.021 3.612,3.683 0.171,0.568 0.423,1.102 0.716,1.441 0.286,0.346 0.767,0.746 1.326,1.018 1.586,0.775 3.503,1.979 3.225,4.088 0,0.008 -0.688,4.984 0.238,8.875 0.298,1.248 0.743,2.012 1.12,2.396 0.12,0.119 0.257,0 0.228,-0.127 -0.794,-3.632 -0.68,-6.981 -0.059,-10.55 M 14.313,24.147 c -0.479,0.112 -1.573,0.389 -2.288,0.688 -0.117,0.046 -0.145,0.25 0.005,0.31 0.802,0.317 2.642,0.522 3.236,0.286 0.871,-0.34 0.68,-1.775 0.228,-2.382 -1.982,-2.818 -3.105,-6.193 -3.291,-9.851 -0.006,-0.183 -0.092,-0.183 -0.135,0 -0.188,0.809 -0.402,1.637 -0.402,2.482 -0.001,3.133 1.039,6.044 2.647,8.467 m 0.48,-5.261 c 0.473,0.925 1.01,1.81 1.604,2.66 0.695,-0.461 0.91,-1.332 0.551,-2.03 -0.06,-0.085 -0.113,-0.174 -0.172,-0.26 -1.817,-2.807 -3.106,-5.994 -3.721,-9.411 -0.015,-0.08 -0.11,-0.084 -0.146,-0.009 -0.175,0.371 -0.17,1.073 -0.122,2.093 0.05,1.18 0.784,4.564 2.006,6.957 m 3.311,-0.587 c 1.237,1.726 0.316,3.644 -0.677,5.066 -1.218,1.725 0.278,3.912 0.205,2.633 -0.1,-1.882 2.276,-2.991 2.599,-5.223 0.166,-1.157 -0.107,-2.378 -0.871,-3.384 l -0.202,-0.278 c -2.218,-2.86 -3.748,-5.892 -4.785,-9.464 -0.035,-0.121 -0.211,-0.165 -0.259,0 -0.137,0.509 -0.203,1.414 0.127,2.651 1.048,3.855 3.857,7.991 3.863,7.999 m 17.624,4.749 c -0.451,0.607 -0.643,2.042 0.228,2.382 0.598,0.237 2.437,0.032 3.236,-0.286 0.148,-0.059 0.121,-0.264 10e-4,-0.31 -0.709,-0.299 -1.807,-0.576 -2.288,-0.688 1.615,-2.423 2.652,-5.334 2.652,-8.468 0,-0.845 -0.217,-1.673 -0.402,-2.482 -0.042,-0.183 -0.128,-0.183 -0.138,0 -0.184,3.659 -1.305,7.034 -3.289,9.852 m -1.454,-3.532 c -0.362,0.698 -0.146,1.569 0.523,2.016 0.62,-0.836 1.153,-1.721 1.627,-2.646 1.229,-2.393 1.958,-5.777 2.01,-6.957 0.047,-1.02 0.052,-1.722 -0.123,-2.093 -0.036,-0.075 -0.13,-0.07 -0.144,0.009 -0.616,3.417 -1.903,6.604 -3.724,9.411 z m -0.69,6.483 c -0.071,1.278 1.429,-0.909 0.207,-2.633 -0.996,-1.422 -1.914,-3.34 -0.68,-5.066 0.01,-0.008 2.824,-4.144 3.864,-7.999 0.334,-1.237 0.271,-2.142 0.127,-2.651 -0.044,-0.165 -0.22,-0.121 -0.256,0 -1.039,3.572 -2.562,6.604 -4.789,9.464 0,0 -0.2,0.278 -0.202,0.278 -0.765,1.006 -1.035,2.227 -0.868,3.384 0.32,2.232 2.701,3.34 2.597,5.223 M 25.503,59.615 C 12.193,59.615 1.369,46.551 1.369,30.5 1.37,14.45 12.194,1.39 25.503,1.39 c 13.308,0 24.134,13.06 24.134,29.11 0,16.051 -10.826,29.115 -24.134,29.115 m 0,-59.115 C 11.714,0.5 0.5,13.958 0.5,30.5 c 0,16.542 11.214,30 25.003,30 13.788,0 25.002,-13.457 25.002,-30 0,-16.542 -11.214,-30 -25.002,-30 m -4.806,29.8 c -0.633,0 -1.176,-0.543 -1.284,-0.774 -0.312,1.467 0.492,2.154 1.664,2.371 -0.201,-0.477 -0.331,-0.976 -0.38,-1.481 z m 0.034,-1.136 c 0.028,-0.456 0.037,-1.015 0.05,-1.448 -1.05,-0.116 -1.722,-0.917 -1.86,-1.114 -0.645,1.032 0.088,2.324 1.81,2.562 m 9.69,1.229 c -0.046,0.5 -0.175,1.001 -0.38,1.474 1.173,-0.213 1.923,-0.901 1.617,-2.368 -0.11,0.232 -0.604,0.773 -1.237,0.773 z m 1.781,-3.813 c -0.141,0.192 -0.809,0.992 -1.861,1.107 0.017,0.431 0.022,0.998 0.051,1.45 1.718,-0.237 2.453,-1.529 1.81,-2.557 m -5.39,-2.589 c 3.484,2.002 4.76,0.156 4.76,0.156 0,0 1.273,1.52 -0.919,2.11 -2.314,0.626 -3.884,-0.787 -4.257,-1.06 -0.689,-0.509 -0.834,-1.922 0.416,-1.206 m 1.87,-1.815 c 1.337,0.813 1.782,0.835 1.782,0.835 0,0 -0.046,1.395 -2.041,0.63 -0.703,-0.272 -2.836,-1.47 -2.477,-1.971 0.606,-0.84 1.653,-0.16 2.736,0.506 m -4.372,1.815 c -3.483,2.002 -4.706,0.156 -4.706,0.156 0,0 -1.327,1.52 0.865,2.11 2.314,0.626 3.883,-0.787 4.257,-1.06 0.689,-0.509 0.834,-1.922 -0.416,-1.206 m -1.869,-1.815 c -1.338,0.813 -1.729,0.835 -1.729,0.835 0,0 -0.009,1.395 1.986,0.63 0.703,-0.272 2.834,-1.47 2.477,-1.971 -0.608,-0.84 -1.653,-0.16 -2.734,0.506 m 7.143,7.631 c -0.059,-0.595 -0.137,-1.668 -0.158,-2.235 -1.64,0 -3.378,-1.251 -3.864,-2.034 -0.486,0.783 -2.227,2.034 -3.864,2.034 -0.023,0.567 -0.101,1.641 -0.16,2.235 -0.112,1.086 0.274,2.212 0.996,3.023 0.373,0.42 0.838,0.826 1.354,1.062 0.041,0.02 0.093,0.037 0.144,0.061 l 0.245,0.105 c 0.139,0.072 0.22,0.18 0.353,0.279 0.383,0.275 0.918,0.258 0.932,0.258 0.018,0 0.551,0.018 0.934,-0.258 0.133,-0.1 0.213,-0.207 0.355,-0.279 l 0.244,-0.105 c 0.053,-0.023 0.098,-0.041 0.145,-0.061 0.514,-0.236 0.978,-0.643 1.35,-1.062 0.722,-0.81 1.107,-1.937 0.994,-3.023 M 27.48,29.365 c -0.936,0 -1.133,-0.281 -1.133,-0.281 0,0 0.236,-0.784 1.131,-0.784 0.891,0 1.224,0.653 1.224,0.653 -0.029,0.1 0.05,0.412 -1.222,0.412 m -1.898,3.576 c -0.785,0 -1.424,-0.652 -1.424,-0.84 0,-0.188 2.85,-0.188 2.85,0 0,0.188 -0.639,0.84 -1.426,0.84 m -1.94,-3.576 c -1.269,0 -1.191,-0.312 -1.222,-0.411 0,0 0.334,-0.653 1.228,-0.653 0.89,0 1.133,0.783 1.133,0.783 0,0 -0.201,0.281 -1.139,0.281 m 1.94,1.198 c 0.408,0 0.738,0.171 0.738,0.309 0,0.138 -0.33,0.31 -0.738,0.31 -0.402,0 -0.732,-0.172 -0.732,-0.31 -0.001,-0.138 0.329,-0.309 0.732,-0.309 m 13.16,0.714 c 2.687,-0.531 5.862,-2.065 6.833,-2.757 0.85,-0.604 1.411,-1.033 1.595,-1.404 0.036,-0.07 -0.026,-0.148 -0.099,-0.106 -3.124,1.645 -6.488,2.619 -9.895,2.946 -0.105,0.013 -0.213,0.022 -0.316,0.031 -0.787,0.15 -1.347,0.862 -1.272,1.689 1.054,-0.059 2.106,-0.192 3.154,-0.399 M 31.22,45.844 c -0.079,0.162 0,0.207 0.123,0.064 0.559,-0.623 1.157,-1.248 1.568,-1.994 1.244,-2.268 1.787,-4.736 1.787,-7.154 0,-0.523 -0.03,-1.047 -0.071,-1.561 -0.03,-0.113 -0.03,-0.201 -0.009,-0.232 0.021,-0.035 0.095,-0.031 0.217,-0.035 0.528,-0.045 1.055,-0.113 1.58,-0.205 2.433,-0.43 4.82,-1.387 6.88,-2.992 0.677,-0.527 1.197,-1.211 1.725,-1.859 0.12,-0.148 0.065,-0.22 -0.083,-0.113 -3.043,2.134 -6.459,3.363 -9.969,3.56 -0.385,0.014 -0.89,0.201 -1.285,0.514 -0.248,0.193 -0.437,0.438 -0.495,0.707 -0.15,0.361 -0.206,0.764 -0.164,1.068 0.429,3.417 -0.197,6.925 -1.804,10.232 m -2.438,2.549 c -0.028,0.076 0.056,0.127 0.122,0.076 0.341,-0.246 0.67,-0.861 1.128,-1.787 0.522,-1.061 1.553,-4.387 1.605,-7.074 0.026,-1.041 -0.029,-2.078 -0.153,-3.107 h -0.031 c -0.818,0.076 -1.434,0.742 -1.442,1.529 0.009,0.1 0.017,0.207 0.023,0.309 0.277,3.339 -0.159,6.749 -1.252,10.054 m -2.154,1.304 c -0.027,0.127 0.109,0.246 0.23,0.127 0.375,-0.385 0.822,-1.148 1.115,-2.396 0.93,-3.891 0.244,-8.867 0.244,-8.875 -0.283,-2.109 1.637,-3.312 3.223,-4.088 0.561,-0.271 1.04,-0.672 1.326,-1.018 0.292,-0.34 0.546,-0.873 0.714,-1.441 0.496,-1.662 1.447,-3.576 3.613,-3.683 0.012,0 5.11,-0.375 8.857,-1.963 1.197,-0.504 1.883,-1.122 2.204,-1.552 0.096,-0.138 -0.048,-0.25 -0.169,-0.2 -3.516,1.417 -6.912,2.105 -10.614,2.15 l -0.354,0.014 c -1.29,0.031 -2.441,0.572 -3.261,1.426 -1.297,1.355 -0.967,3.712 -1.812,4.646 -0.854,0.93 -2.999,1.049 -4.287,2.518 -0.777,0.885 -1.213,2.141 -1.016,3.389 0,0.004 0.049,0.393 0.049,0.396 0.62,3.568 0.733,6.917 -0.062,10.55 m 14.952,-1.92 c -0.046,-0.045 -0.099,-0.035 -0.136,-0.027 -0.136,0.027 -0.301,0.041 -0.435,0.023 -0.622,-0.082 -1.189,-0.123 -1.817,-0.199 0.121,-0.379 0.142,-1.064 -0.354,-1.52 -0.505,-0.461 -1.171,-0.223 -1.588,0.26 -0.18,0.205 -0.34,0.438 -0.52,0.652 -0.104,0.121 -0.337,0.361 -0.429,0.441 -0.071,0.061 -0.158,0.117 -0.215,0.189 -0.071,0.08 -0.096,0.17 -0.009,0.25 0.092,0.086 0.164,0.027 0.271,-0.094 0.182,-0.184 0.214,-0.156 0.379,-0.004 l 2.766,2.543 0.418,-0.615 -1.259,-1.158 0.053,-0.068 c 0.079,-0.09 0.118,-0.133 0.168,-0.229 l 1.397,0.152 c 0.459,0.059 0.808,0.17 1.166,-0.246 0.095,-0.106 0.188,-0.305 0.144,-0.35 m -3.166,-1.06 c 0.341,0.305 0.713,0.787 0.135,1.457 -0.055,0.062 -0.085,0.098 -0.127,0.133 l -1.305,-1.195 c -0.049,-0.047 -0.068,-0.086 0.002,-0.168 l 0.143,-0.164 c 0.435,-0.507 0.776,-0.407 1.152,-0.063 M 5.292,39.879 C 5.193,39.594 5.114,39.094 5.243,38.588 l 0.435,0.037 c -0.154,0.404 -0.135,0.908 -0.062,1.135 0.18,0.537 0.558,0.826 1.017,0.666 0.229,-0.084 0.298,-0.344 0.349,-0.627 0.087,-0.436 0.083,-0.898 0.257,-1.309 0.128,-0.326 0.331,-0.625 0.789,-0.793 0.636,-0.221 1.249,0.266 1.492,0.99 0.079,0.24 0.136,0.557 0.194,0.969 -0.285,0.121 -0.5,0.197 -0.673,0.256 -0.086,0.035 -0.185,0.059 -0.228,-0.08 -0.028,-0.09 -0.018,-0.166 0.276,-0.336 0.124,-0.07 0.216,-0.295 0.073,-0.725 -0.151,-0.465 -0.473,-0.756 -0.909,-0.604 -0.301,0.107 -0.345,0.836 -0.371,1.119 -0.031,0.312 -0.07,0.67 -0.216,0.969 -0.133,0.273 -0.372,0.506 -0.72,0.631 -0.752,0.268 -1.402,-0.245 -1.654,-1.007 m 6.145,3.898 c -0.035,0.01 -0.081,0 -0.224,0.02 L 11.129,43.494 10.568,42.326 7.116,44.074 6.731,43.443 10.25,41.656 C 10.099,41.31 9.805,40.711 9.805,40.711 9.635,40.363 9.591,40.488 9.347,40.561 9.235,40.592 9.118,40.61 9.076,40.524 9.019,40.399 9.07,40.35 9.182,40.294 9.317,40.222 9.491,40.14 9.661,40.06 c 0.201,-0.094 0.266,0 0.331,0.162 0.078,0.178 0.146,0.336 0.257,0.59 0.328,0.76 0.7,1.512 1.057,2.254 0.066,0.137 0.166,0.264 0.251,0.385 0.021,0.039 0.049,0.066 0.063,0.098 0.016,0.035 0.053,0.15 -0.062,0.209 -0.059,0.029 -0.063,0.027 -0.121,0.019 m 2.634,3.797 C 14.007,47.508 13.899,47.5 13.776,47.533 L 9.892,48.631 9.547,48.258 c 0.839,-1.506 1.375,-2.494 2.091,-3.719 0.058,-0.094 0.105,-0.143 0.041,-0.246 -0.13,-0.184 -0.115,-0.24 -0.042,-0.299 0.081,-0.068 0.18,-0.045 0.251,0.066 0.085,0.166 0.265,0.418 0.351,0.555 0.107,0.17 0.035,0.305 -0.051,0.447 l -1.788,2.996 3.162,-0.912 c 0.203,-0.062 -0.2,-0.439 -0.036,-0.568 0.081,-0.062 0.159,-0.027 0.236,0.09 0.092,0.156 0.193,0.312 0.279,0.432 0.087,0.117 0.171,0.203 0.286,0.342 0.093,0.102 0.087,0.205 0.006,0.266 -0.049,0.042 -0.1,0.024 -0.262,-0.134 m 2.725,4.721 c 0.763,-1.014 0.494,-2.307 -0.544,-3.139 -0.257,-0.205 -0.428,-0.328 -0.579,-0.441 -0.124,-0.09 -0.249,-0.178 -0.366,-0.277 -0.125,-0.1 -0.281,-0.242 -0.356,-0.33 -0.063,-0.066 -0.126,-0.152 -0.198,-0.211 -0.079,-0.062 -0.183,-0.066 -0.251,0.023 -0.081,0.102 0.015,0.172 0.122,0.268 0.191,0.174 0.158,0.205 0.026,0.385 l -2.304,3.053 c 0.343,0.238 0.558,0.377 0.84,0.662 0.126,0.129 0.232,0.25 0.316,0.314 1.187,0.951 2.473,0.785 3.294,-0.307 m -0.673,-0.414 c -0.663,0.881 -1.502,1.234 -2.396,0.514 -0.235,-0.188 -0.405,-0.346 -0.521,-0.504 -0.071,-0.096 -0.062,-0.107 0.035,-0.242 l 2.003,-2.652 c 0.09,-0.121 0.146,-0.121 0.245,-0.035 l 0.438,0.354 c 1.12,0.893 0.78,1.782 0.196,2.565 m 3.084,-0.34 c -0.093,-0.031 -0.123,0.08 -0.162,0.16 l -1.642,3.35 -0.67,-0.281 1.668,-3.404 c 0.112,-0.223 0.097,-0.178 -0.081,-0.311 -0.08,-0.064 -0.197,-0.117 -0.143,-0.225 0.052,-0.107 0.143,-0.127 0.265,-0.053 0.144,0.088 0.395,0.24 0.521,0.303 0.125,0.072 0.348,0.166 0.509,0.232 0.123,0.053 0.162,0.143 0.113,0.25 -0.041,0.086 -0.147,0.055 -0.378,-0.021 m 4.898,1.301 c -0.101,0.014 -0.188,0.066 -0.26,0.174 l -2.42,3.43 -0.498,-0.066 c -0.253,-1.719 -0.437,-2.781 -0.623,-4.207 -0.011,-0.104 -0.002,-0.176 -0.117,-0.211 -0.212,-0.057 -0.234,-0.115 -0.214,-0.205 0.025,-0.104 0.115,-0.156 0.234,-0.107 0.169,0.066 0.461,0.146 0.61,0.201 0.182,0.068 0.209,0.215 0.231,0.379 l 0.426,3.443 1.914,-2.754 c 0.12,-0.174 -0.423,-0.209 -0.373,-0.416 0.028,-0.104 0.107,-0.121 0.236,-0.08 0.164,0.053 0.826,0.107 1.004,0.107 0.138,0.006 0.198,0.053 0.181,0.174 -0.013,0.083 -0.096,0.11 -0.331,0.138 m 5.735,-0.805 c -0.243,0.115 -0.26,0.191 -0.172,0.518 0.1,0.391 0.944,3.586 0.944,3.586 l -0.767,0.201 -0.835,-3.268 -0.847,3.26 -0.349,0.117 -1.926,-2.854 0.221,3.26 -0.672,0.191 -0.242,-3.725 c -0.027,-0.379 -0.084,-0.465 -0.309,-0.482 -0.188,-0.018 -0.269,-0.068 -0.282,-0.17 -0.024,-0.158 0.11,-0.178 0.179,-0.184 0.182,-0.006 0.662,0.018 0.82,0.01 0.135,-0.004 0.207,0.014 0.314,0.17 l 1.98,3.016 0.897,-3.445 c 0.048,-0.17 0.154,-0.25 0.278,-0.285 0.162,-0.041 0.558,-0.193 0.729,-0.238 0.065,-0.02 0.229,-0.027 0.251,0.117 0.017,0.106 -0.053,0.129 -0.212,0.205 m 6.132,-3.685 c -0.078,0.154 -0.058,0.369 -0.027,0.494 l 0.847,3.889 -0.382,0.336 c -1.396,-0.971 -2.325,-1.498 -3.463,-2.32 -0.084,-0.062 -0.13,-0.117 -0.23,-0.055 -0.185,0.117 -0.242,0.1 -0.291,0.023 -0.058,-0.09 -0.037,-0.193 0.079,-0.252 0.161,-0.084 0.42,-0.244 0.555,-0.324 0.173,-0.1 0.295,-0.016 0.433,0.08 l 2.786,1.949 -0.736,-3.273 c -0.041,-0.211 -0.434,0.178 -0.545,0.006 -0.057,-0.096 -0.015,-0.162 0.102,-0.238 0.206,-0.135 0.558,-0.502 0.745,-0.725 0.093,-0.102 0.207,-0.076 0.266,0.014 0.027,0.052 -0.038,0.194 -0.139,0.396 m 6.861,-4.827 c -0.587,-0.381 -1.118,-0.148 -1.523,0.275 0.035,-0.432 -0.135,-0.801 -0.527,-1.051 -0.445,-0.285 -1.111,-0.061 -1.485,0.559 -0.127,0.207 -0.221,0.42 -0.349,0.631 -0.084,0.145 -0.235,0.363 -0.315,0.457 -0.062,0.07 -0.135,0.143 -0.18,0.223 -0.062,0.1 -0.036,0.207 0.051,0.266 0.079,0.043 0.115,0.025 0.237,-0.158 0.147,-0.219 0.184,-0.188 0.366,-0.072 l 0.139,0.096 3.05,1.961 c 0,0 0.26,-0.506 0.322,-0.604 0.131,-0.199 0.258,-0.285 0.394,-0.514 0.453,-0.746 0.457,-1.658 -0.18,-2.069 m -2.317,-0.068 c 0.349,0.225 0.587,0.537 0.251,1.092 l -0.13,0.219 -1.203,-0.779 c -0.094,-0.062 -0.127,-0.08 -0.075,-0.164 l 0.057,-0.1 c 0.257,-0.424 0.676,-0.545 1.1,-0.268 m 1.989,0.734 c 0.42,0.266 0.584,0.719 0.314,1.17 -0.108,0.184 -0.25,0.354 -0.387,0.492 -0.042,0.041 -0.043,0.041 -0.08,0.018 l -1.459,-0.943 0.118,-0.197 c 0.47,-0.774 0.998,-0.862 1.494,-0.54 M 41.029,40.6 c -0.028,0.098 0.083,0.131 0.158,0.166 l 3.35,1.609 -0.25,0.703 -3.406,-1.643 c -0.216,-0.102 -0.171,-0.094 -0.298,0.1 -0.053,0.084 -0.103,0.205 -0.209,0.152 -0.107,-0.049 -0.128,-0.143 -0.064,-0.27 0.087,-0.152 0.222,-0.412 0.284,-0.545 0.059,-0.139 0.146,-0.367 0.206,-0.531 0.05,-0.135 0.136,-0.18 0.239,-0.125 0.08,0.04 0.056,0.147 -0.01,0.384 m 4.588,-0.854 c -0.093,0.285 -0.316,0.732 -0.715,1.055 L 44.58,40.506 c 0.357,-0.23 0.635,-0.643 0.709,-0.871 0.171,-0.537 0.042,-1.006 -0.423,-1.158 -0.229,-0.08 -0.44,0.09 -0.644,0.281 -0.325,0.295 -0.589,0.668 -0.969,0.891 -0.293,0.18 -0.628,0.291 -1.093,0.139 -0.636,-0.217 -0.844,-0.984 -0.615,-1.719 0.078,-0.238 0.215,-0.525 0.409,-0.893 0.3,0.08 0.515,0.152 0.687,0.209 0.092,0.031 0.18,0.072 0.139,0.211 -0.029,0.09 -0.084,0.143 -0.419,0.098 -0.142,-0.027 -0.346,0.096 -0.485,0.529 -0.145,0.465 -0.06,0.902 0.376,1.045 0.308,0.107 0.766,-0.451 0.947,-0.656 0.209,-0.232 0.451,-0.496 0.743,-0.639 0.266,-0.141 0.593,-0.18 0.938,-0.062 0.76,0.253 0.979,1.071 0.737,1.835"
   id="path2"
   inkscape:connector-curvature="0"
   style="clip-rule:evenodd;fill:#ffffff;fill-rule:evenodd" />


</svg>